<?xml version="1.0" encoding="UTF-8"?>
<svg version="1.1" xmlns="http://www.w3.org/2000/svg" width="1028" height="991">
<path d="M0 0 C8.23411165 0.00533717 16.46822047 0.00465852 24.70233342 0.00386402 C39.89018346 0.00255955 55.0780291 0.00585529 70.26587786 0.01188143 C85.2781169 0.01782246 100.29035411 0.02165219 115.30259432 0.02273424 C116.24013155 0.02280298 117.17766878 0.02287172 118.14361623 0.02294254 C122.90595312 0.02328093 127.66829002 0.02358229 132.43062692 0.02386942 C166.05899339 0.02596325 199.68735747 0.03268214 233.3157226 0.04217203 C265.96123029 0.05137385 298.60673731 0.05844891 331.25224604 0.06267984 C332.26061253 0.06281137 333.26897902 0.06294289 334.30790208 0.06307841 C344.43542053 0.06439706 354.56293898 0.06567285 364.69045745 0.06691727 C385.31671062 0.06945268 405.94296375 0.07227393 426.56921686 0.07526834 C427.51733321 0.07540563 428.46544955 0.07554292 429.44229669 0.07568437 C492.62902884 0.08486673 555.81575967 0.10070973 619.00249018 0.11761148 C619.33249018 1.10761148 619.66249018 2.09761148 620.00249018 3.11761148 C620.78624018 3.07636148 621.56999018 3.03511148 622.37749018 2.99261148 C625.00249018 3.11761148 625.00249018 3.11761148 627.00249018 5.11761148 C627.00249018 6.10761148 627.00249018 7.09761148 627.00249018 8.11761148 C628.32249018 8.11761148 629.64249018 8.11761148 631.00249018 8.11761148 C631.33249018 9.43761148 631.66249018 10.75761148 632.00249018 12.11761148 C632.9248144 12.21042398 632.9248144 12.21042398 633.86577143 12.30511148 C636.00249018 13.11761148 636.00249018 13.11761148 637.23295893 15.36761148 C637.54877924 16.27511148 637.86459955 17.18261148 638.18999018 18.11761148 C639.16294188 21.37863118 639.16294188 21.37863118 641.00249018 24.11761148 C641.28107048 27.19212504 641.23431266 30.28197778 641.25249018 33.36761148 C641.28342768 34.65731851 641.28342768 34.65731851 641.31499018 35.97308023 C641.34561913 40.94262761 641.07031816 44.00958631 638.00249018 48.11761148 C637.41132177 49.37536485 636.84413976 50.64503392 636.31499018 51.93011148 C635.66530268 53.50792398 635.66530268 53.50792398 635.00249018 55.11761148 C634.01249018 55.11761148 633.02249018 55.11761148 632.00249018 55.11761148 C631.34249018 56.76761148 630.68249018 58.41761148 630.00249018 60.11761148 C629.01249018 60.11761148 628.02249018 60.11761148 627.00249018 60.11761148 C626.67249018 61.10761148 626.34249018 62.09761148 626.00249018 63.11761148 C625.23936518 63.22073648 624.47624018 63.32386148 623.68999018 63.43011148 C620.97517609 63.83088119 620.97517609 63.83088119 619.83001836 65.63653268 C616.92039977 67.99456714 613.65964152 67.53164888 610.07453932 67.50237234 C609.25390492 67.50752225 608.43327053 67.51267215 607.58776842 67.51797812 C604.81410093 67.53168768 602.04090029 67.5238871 599.26721491 67.5163389 C597.26821848 67.52177354 595.26922526 67.52852306 593.27023728 67.5364808 C587.75861649 67.55458866 582.24712986 67.55393898 576.73548629 67.55035134 C570.79885585 67.54972974 564.86227133 67.56632629 558.92566218 67.58086832 C548.63393035 67.60370465 538.34222866 67.61565223 528.05047335 67.61999758 C517.25422102 67.62460134 506.45800403 67.63537521 495.66176714 67.65442522 C494.65558871 67.65619541 494.65558871 67.65619541 493.62908344 67.65800136 C490.22262841 67.66402662 486.8161736 67.67016246 483.40971885 67.67634087 C459.26950939 67.71992584 435.12930078 67.74962287 410.98906244 67.77117594 C387.53429693 67.79214872 364.07955246 67.81939765 340.62480463 67.85516031 C339.90207615 67.85625979 339.17934767 67.85735927 338.43471832 67.85849206 C331.17691144 67.86954021 323.91910475 67.88071613 316.66129821 67.89198568 C301.87575323 67.91494101 287.09020702 67.93704339 272.30465998 67.95863016 C271.28489283 67.96012059 271.28489283 67.96012059 270.24452432 67.96164113 C224.83052998 68.02791762 179.41651155 68.07424761 134.00249018 68.11761148 C133.67249018 68.77761148 133.34249018 69.43761148 133.00249018 70.11761148 C94.37749947 71.99008288 55.80295245 73.42481448 17.12749018 73.36761148 C15.53001705 73.36653792 13.9325439 73.36547984 12.33507075 73.36443765 C8.53795713 73.36046974 4.74093766 73.34900975 0.94386591 73.33081491 C-1.09005136 73.32115056 -3.12398124 73.31425914 -5.15791021 73.30749185 C-27.98208885 73.13303245 -27.98208885 73.13303245 -29.99750982 71.11761148 C-32.32737105 70.90792397 -34.66195018 70.74945759 -36.99750982 70.61761148 C-43.88639871 70.22872259 -43.88639871 70.22872259 -44.99750982 69.11761148 C-47.50675136 69.01673936 -49.98787366 68.97789116 -52.49750982 68.98479898 C-53.24838873 68.98384226 -53.99926763 68.98288553 -54.77290045 68.98189981 C-56.36339609 68.9812181 -57.9538945 68.98307176 -59.54438482 68.98724039 C-61.98715637 68.99258881 -64.42974403 68.98729514 -66.87250982 68.98089273 C-68.4141769 68.98155352 -69.95584386 68.98283468 -71.49750982 68.98479898 C-72.23291998 68.98277475 -72.96833013 68.98075052 -73.72602545 68.97866495 C-77.14997324 68.68704635 -77.14997324 68.68704635 -79.99750982 70.11761148 C-83.35860267 70.44287853 -86.72084972 70.63120609 -90.09125982 70.83636148 C-92.88801114 70.79621038 -92.88801114 70.79621038 -93.99750982 72.11761148 C-97.42861181 72.5346515 -100.8577432 72.88569675 -104.3002442 73.19183023 C-108.94652577 73.67149885 -112.85754639 74.6711065 -117.18232427 76.42669351 C-119.60432225 77.3485838 -122.0002051 77.75138011 -124.56000982 78.11761148 C-129.10705934 78.87648979 -132.77523958 80.22486965 -136.99750982 82.11761148 C-139.13783519 82.78147044 -141.28436829 83.42547475 -143.43500982 84.05511148 C-147.35147838 85.22104867 -150.94867608 86.45373985 -154.56000982 88.36761148 C-157.99750982 90.11761148 -157.99750982 90.11761148 -161.99750982 90.11761148 C-161.99750982 90.77761148 -161.99750982 91.43761148 -161.99750982 92.11761148 C-162.95850591 92.48112711 -162.95850591 92.48112711 -163.93891607 92.85198648 C-168.1001545 94.46438885 -172.10297334 96.06510029 -175.93500982 98.36761148 C-178.99750982 100.11761148 -178.99750982 100.11761148 -181.99750982 100.11761148 C-181.99750982 100.77761148 -181.99750982 101.43761148 -181.99750982 102.11761148 C-184.90299864 104.15930633 -186.39893028 105.11761148 -189.99750982 105.11761148 C-189.99750982 105.77761148 -189.99750982 106.43761148 -189.99750982 107.11761148 C-192.26313482 108.80901773 -192.26313482 108.80901773 -195.24750982 110.68011148 C-196.22204107 111.30015054 -197.19657232 111.92018961 -198.20063482 112.55901773 C-200.56570591 113.87698332 -202.35941739 114.65908589 -204.99750982 115.11761148 C-204.99750982 115.77761148 -204.99750982 116.43761148 -204.99750982 117.11761148 C-206.45844732 118.40667398 -206.45844732 118.40667398 -208.37250982 119.74261148 C-208.9989942 120.18862711 -209.62547857 120.63464273 -210.27094732 121.09417398 C-211.99750982 122.11761148 -211.99750982 122.11761148 -213.99750982 122.11761148 C-213.99750982 122.77761148 -213.99750982 123.43761148 -213.99750982 124.11761148 C-215.86079107 125.80901773 -215.86079107 125.80901773 -218.31000982 127.68011148 C-219.11051763 128.30015054 -219.91102545 128.92018961 -220.73579107 129.55901773 C-222.99750982 131.11761148 -222.99750982 131.11761148 -225.99750982 132.11761148 C-226.32750982 133.10761148 -226.65750982 134.09761148 -226.99750982 135.11761148 C-227.65750982 135.11761148 -228.31750982 135.11761148 -228.99750982 135.11761148 C-228.99750982 135.77761148 -228.99750982 136.43761148 -228.99750982 137.11761148 C-229.65750982 137.11761148 -230.31750982 137.11761148 -230.99750982 137.11761148 C-231.32750982 138.10761148 -231.65750982 139.09761148 -231.99750982 140.11761148 C-232.65750982 140.11761148 -233.31750982 140.11761148 -233.99750982 140.11761148 C-234.26563482 140.75698648 -234.53375982 141.39636148 -234.81000982 142.05511148 C-235.99750982 144.11761148 -235.99750982 144.11761148 -238.99750982 145.11761148 C-239.24500982 145.79823648 -239.49250982 146.47886148 -239.74750982 147.18011148 C-241.33789133 150.91750803 -243.70855599 153.37931033 -246.43891607 156.34808023 C-248.06807698 158.04575655 -248.06807698 158.04575655 -248.99750982 160.11761148 C-249.65750982 160.11761148 -250.31750982 160.11761148 -250.99750982 160.11761148 C-251.46157232 161.29323648 -251.46157232 161.29323648 -251.93500982 162.49261148 C-252.99750982 165.11761148 -252.99750982 165.11761148 -253.99750982 167.11761148 C-254.65750982 167.11761148 -255.31750982 167.11761148 -255.99750982 167.11761148 C-256.26563482 167.83304117 -256.53375982 168.54847086 -256.81000982 169.28558023 C-258.01482289 172.15890087 -259.40988094 174.75098775 -260.99750982 177.43011148 C-261.51313482 178.31311929 -262.02875982 179.19612711 -262.56000982 180.10589273 C-263.03438482 180.76975992 -263.50875982 181.43362711 -263.99750982 182.11761148 C-264.65750982 182.11761148 -265.31750982 182.11761148 -265.99750982 182.11761148 C-266.12125982 182.83948648 -266.24500982 183.56136148 -266.37250982 184.30511148 C-266.98800292 187.07483043 -267.88195356 189.51464688 -268.99750982 192.11761148 C-269.65750982 192.11761148 -270.31750982 192.11761148 -270.99750982 192.11761148 C-271.12125982 192.83948648 -271.24500982 193.56136148 -271.37250982 194.30511148 C-271.98800292 197.07483043 -272.88195356 199.51464688 -273.99750982 202.11761148 C-274.65750982 202.11761148 -275.31750982 202.11761148 -275.99750982 202.11761148 C-276.17540045 203.43438883 -276.17540045 203.43438883 -276.35688482 204.77776773 C-276.97803083 208.0160594 -277.90352786 210.55667071 -279.24750982 213.55511148 C-283.49833399 223.46137999 -286.81184109 233.55354593 -288.99750982 244.11761148 C-289.32750982 244.44761148 -289.65750982 244.77761148 -289.99750982 245.11761148 C-290.16250982 246.27261148 -290.32750982 247.42761148 -290.49750982 248.61761148 C-290.99750982 252.11761148 -290.99750982 252.11761148 -291.99750982 253.11761148 C-292.2107271 254.4442968 -292.36748445 255.78020767 -292.49750982 257.11761148 C-292.58000982 257.92198648 -292.66250982 258.72636148 -292.74750982 259.55511148 C-292.83000982 260.40073648 -292.91250982 261.24636148 -292.99750982 262.11761148 C-293.16015025 263.78467586 -293.32661359 265.45137319 -293.49750982 267.11761148 C-293.56969732 267.86011148 -293.64188482 268.60261148 -293.71625982 269.36761148 C-293.99750982 271.11761148 -293.99750982 271.11761148 -294.99750982 272.11761148 C-295.15333286 273.45776369 -295.24795124 274.80520051 -295.31391607 276.15276773 C-295.3558106 276.96165445 -295.39770513 277.77054117 -295.4408692 278.60393961 C-295.4801856 279.45407633 -295.51950201 280.30421304 -295.56000982 281.18011148 C-295.62478521 282.46111734 -295.62478521 282.46111734 -295.6908692 283.76800211 C-295.79727684 285.88433186 -295.89792713 288.00094961 -295.99750982 290.11761148 C-296.65750982 290.11761148 -297.31750982 290.11761148 -297.99750982 290.11761148 C-297.99750982 292.42761148 -297.99750982 294.73761148 -297.99750982 297.11761148 C-297.33750982 297.11761148 -296.67750982 297.11761148 -295.99750982 297.11761148 C-295.97410093 313.11249414 -295.9564915 329.10737119 -295.94569765 345.10226686 C-295.94055163 352.52975086 -295.93354135 359.95722418 -295.92207037 367.38470133 C-295.91207163 373.86201433 -295.90564408 380.33931959 -295.90342133 386.81664009 C-295.90212301 390.24310864 -295.89909316 393.66955506 -295.89177976 397.09601648 C-295.88449513 400.93053922 -295.88352201 404.7650165 -295.88398443 408.59954508 C-295.88038915 409.72308389 -295.87679388 410.84662271 -295.87308965 412.00420816 C-295.87446432 413.06130991 -295.87583898 414.11841165 -295.8772553 415.20754679 C-295.87633351 416.1127475 -295.87541172 417.01794821 -295.87446199 417.95057924 C-295.97389059 420.50969438 -296.18766822 422.97462444 -296.47060953 425.51590784 C-297.20177163 432.54559107 -297.36293086 439.5944776 -297.548169 446.65493448 C-297.56907313 447.42334676 -297.58997726 448.19175905 -297.61151485 448.98345655 C-298.17887617 470.32918284 -298.16583781 491.67910338 -298.18345938 513.03089268 C-298.18951579 519.06308031 -298.20115421 525.09525775 -298.21209417 531.12743814 C-298.23027606 541.53480549 -298.24520452 551.94217346 -298.25787054 562.34954889 C-298.27624516 577.39833541 -298.30094346 592.4471071 -298.32724444 607.49588162 C-298.33953928 614.53502798 -298.35153452 621.57417485 -298.36345373 628.61332186 C-298.36464625 629.31736013 -298.36583878 630.02139841 -298.36706744 630.74677118 C-298.39525016 647.42555719 -298.42051944 664.1043474 -298.44526373 680.78313883 C-298.44688552 681.87514912 -298.44688552 681.87514912 -298.44854008 682.98922024 C-298.46941048 697.04567872 -298.49000617 711.1021376 -298.5105332 725.15859659 C-298.52354451 734.06729826 -298.53661852 742.97599984 -298.54975591 751.88470133 C-298.55083538 752.61746388 -298.55191485 753.35022643 -298.55302702 754.10519391 C-298.57767845 770.82775447 -298.6032044 787.55031304 -298.63156591 804.27286775 C-298.63275616 804.97485116 -298.63394641 805.67683457 -298.63517273 806.40009021 C-298.64707197 813.40563627 -298.65913003 820.41118204 -298.67142294 827.41672742 C-298.69778755 842.46030795 -298.72144078 857.50388577 -298.73959634 872.54747858 C-298.75283946 883.48531253 -298.76954429 894.42313717 -298.78969143 905.36096069 C-298.80048093 911.28738882 -298.80958848 917.21380782 -298.81438719 923.14024408 C-298.81879751 928.55573043 -298.82771338 933.97118927 -298.84033041 939.38666254 C-298.84408745 941.35330503 -298.84612842 943.31995164 -298.84635059 945.2865977 C-298.84688638 947.94346251 -298.85345535 950.6002434 -298.86163793 953.25709398 C-298.86032942 954.03409609 -298.8590209 954.8110982 -298.85767273 955.61164583 C-298.88336778 960.8893274 -298.88336778 960.8893274 -299.99750982 963.11761148 C-300.98750982 963.11761148 -301.97750982 963.11761148 -302.99750982 963.11761148 C-303.32750982 965.42761148 -303.65750982 967.73761148 -303.99750982 970.11761148 C-305.31750982 970.11761148 -306.63750982 970.11761148 -307.99750982 970.11761148 C-308.49250982 972.59261148 -308.49250982 972.59261148 -308.99750982 975.11761148 C-309.65750982 975.11761148 -310.31750982 975.11761148 -310.99750982 975.11761148 C-311.32750982 976.10761148 -311.65750982 977.09761148 -311.99750982 978.11761148 C-312.65750982 978.11761148 -313.31750982 978.11761148 -313.99750982 978.11761148 C-313.99750982 978.77761148 -313.99750982 979.43761148 -313.99750982 980.11761148 C-314.96688482 980.42698648 -315.93625982 980.73636148 -316.93500982 981.05511148 C-319.83816774 981.8128449 -319.83816774 981.8128449 -320.99750982 983.11761148 C-324.69799997 983.39970013 -328.41256197 983.34951418 -332.12250982 983.36761148 C-333.15633795 983.38823648 -334.19016607 983.40886148 -335.25532232 983.43011148 C-341.30826765 983.46099386 -345.64305526 982.99961252 -350.99750982 980.11761148 C-350.99750982 979.45761148 -350.99750982 978.79761148 -350.99750982 978.11761148 C-351.98750982 978.11761148 -352.97750982 978.11761148 -353.99750982 978.11761148 C-354.98750982 976.63261148 -354.98750982 976.63261148 -355.99750982 975.11761148 C-356.98750982 974.78761148 -357.97750982 974.45761148 -358.99750982 974.11761148 C-359.66417649 972.11761148 -360.33084315 970.11761148 -360.99750982 968.11761148 C-361.98750982 967.78761148 -362.97750982 967.45761148 -363.99750982 967.11761148 C-365.96160041 964.16789306 -366.2476476 961.77085018 -366.24820815 958.27576299 C-366.25321519 957.2954294 -366.25822222 956.31509582 -366.26338099 955.30505516 C-366.25869866 954.2283887 -366.25401632 953.15172224 -366.2491921 952.04242952 C-366.25209898 950.89369598 -366.25500587 949.74496244 -366.25800083 948.56141879 C-366.26406344 945.35828262 -366.26111392 942.15529742 -366.25444493 938.95216699 C-366.24938736 935.47297924 -366.25588504 931.99381037 -366.26093159 928.51462527 C-366.26816916 922.41213119 -366.26792716 916.30967248 -366.26283727 910.20717676 C-366.25528915 901.13283736 -366.25913098 892.05852793 -366.26525389 882.98418875 C-366.27579995 866.78036905 -366.27486685 850.57656509 -366.26909606 834.37274389 C-366.26407107 820.19402054 -366.26274869 806.01530297 -366.26514135 791.83657892 C-366.26529412 790.89720101 -366.26544689 789.9578231 -366.26560429 788.9899792 C-366.26622694 785.17705666 -366.26686373 781.36413413 -366.26752382 777.5512116 C-366.27364572 741.76275871 -366.26808853 705.97431587 -366.25733003 670.18586453 C-366.24783683 638.36444277 -366.24868892 606.54303701 -366.25825201 574.72161539 C-366.26895216 538.99689134 -366.27321316 503.27217617 -366.26702748 467.54745074 C-366.26638601 463.74197133 -366.26576033 459.93649192 -366.26514135 456.13101251 C-366.2649832 455.19395734 -366.26482504 454.25690216 -366.26466209 453.29145137 C-366.26238353 439.1175139 -366.26505438 424.94358283 -366.27010046 410.76964624 C-366.27580663 394.66090498 -366.27441568 378.55218197 -366.26353897 362.443443 C-366.25764722 353.41893902 -366.25731057 344.39447453 -366.26483132 335.36997154 C-366.26929502 329.35207659 -366.2665634 323.33421348 -366.25782178 317.31632327 C-366.25303578 313.88086648 -366.25149591 310.4454885 -366.25863375 307.01003402 C-366.26464195 303.32031539 -366.25855263 299.63081787 -366.2491921 295.94111116 C-366.25387443 294.85976237 -366.25855677 293.77841358 -366.26338099 292.66429664 C-366.25837395 291.68897009 -366.25336691 290.71364355 -366.24820815 289.70876165 C-366.24807263 288.86392966 -366.24793711 288.01909768 -366.24779749 287.14866472 C-365.99750982 285.11761148 -365.99750982 285.11761148 -363.99750982 283.11761148 C-363.64166055 280.31952888 -363.64166055 280.31952888 -363.61860357 277.05120523 C-363.56736334 275.24039469 -363.56736334 275.24039469 -363.51508795 273.39300211 C-363.48866216 272.1264982 -363.46223638 270.85999429 -363.43500982 269.55511148 C-363.37536192 267.05370689 -363.31178129 264.55239187 -363.24360357 262.05120523 C-363.21967535 260.9380192 -363.19574713 259.82483316 -363.17109381 258.67791422 C-362.99750982 256.11761148 -362.99750982 256.11761148 -361.99750982 255.11761148 C-361.79490863 253.73835772 -361.65058592 252.35041983 -361.53266607 250.96136148 C-361.45467779 250.10284586 -361.37668951 249.24433023 -361.29633795 248.35979898 C-361.14148797 246.56302735 -360.98779929 244.76615517 -360.83540045 242.96917398 C-360.08247747 234.71762786 -358.28823583 227.0677782 -355.99750982 219.11761148 C-355.49260637 217.09799769 -354.99303345 215.07704711 -354.49750982 213.05511148 C-353.49654663 209.00552943 -352.41590059 205.04546283 -350.99750982 201.11761148 C-350.33750982 201.11761148 -349.67750982 201.11761148 -348.99750982 201.11761148 C-348.94852545 200.52593179 -348.89954107 199.93425211 -348.84907232 199.32464273 C-348.43294115 194.92656677 -347.94785387 191.14832251 -345.99750982 187.11761148 C-345.33750982 187.11761148 -344.67750982 187.11761148 -343.99750982 187.11761148 C-343.87375982 186.04511148 -343.75000982 184.97261148 -343.62250982 183.86761148 C-343.10107046 180.73897533 -342.59662728 178.78280724 -340.99750982 176.11761148 C-340.33750982 176.11761148 -339.67750982 176.11761148 -338.99750982 176.11761148 C-338.87375982 175.06573648 -338.75000982 174.01386148 -338.62250982 172.93011148 C-338.086102 169.65802377 -337.35870947 167.11225072 -335.99750982 164.11761148 C-335.33750982 164.11761148 -334.67750982 164.11761148 -333.99750982 164.11761148 C-333.88536138 163.40218179 -333.77321295 162.68675211 -333.65766607 161.94964273 C-332.95294977 158.9264515 -331.86463184 156.5543846 -330.43500982 153.80511148 C-329.97997076 152.92210367 -329.5249317 152.03909586 -329.05610357 151.12933023 C-328.70676763 150.46546304 -328.3574317 149.80159586 -327.99750982 149.11761148 C-327.33750982 149.11761148 -326.67750982 149.11761148 -325.99750982 149.11761148 C-325.99750982 148.12761148 -325.99750982 147.13761148 -325.99750982 146.11761148 C-325.33750982 146.11761148 -324.67750982 146.11761148 -323.99750982 146.11761148 C-323.66750982 144.46761148 -323.33750982 142.81761148 -322.99750982 141.11761148 C-322.33750982 141.11761148 -321.67750982 141.11761148 -320.99750982 141.11761148 C-320.9124317 140.58522867 -320.82735357 140.05284586 -320.73969732 139.50433023 C-319.72670393 136.24675673 -318.00884752 133.76652769 -316.12250982 130.93011148 C-315.42383795 129.86405679 -314.72516607 128.79800211 -314.00532232 127.69964273 C-311.99750982 125.11761148 -311.99750982 125.11761148 -308.99750982 124.11761148 C-308.39689749 122.21582363 -308.39689749 122.21582363 -307.99750982 120.11761148 C-307.00750982 118.63261148 -307.00750982 118.63261148 -305.99750982 117.11761148 C-305.33750982 117.11761148 -304.67750982 117.11761148 -303.99750982 117.11761148 C-303.99750982 116.12761148 -303.99750982 115.13761148 -303.99750982 114.11761148 C-303.33750982 114.11761148 -302.67750982 114.11761148 -301.99750982 114.11761148 C-301.89438482 113.51948648 -301.79125982 112.92136148 -301.68500982 112.30511148 C-300.89926949 109.80502863 -300.02832129 108.74226066 -297.99750982 107.11761148 C-297.33750982 107.11761148 -296.67750982 107.11761148 -295.99750982 107.11761148 C-295.33750982 105.46761148 -294.67750982 103.81761148 -293.99750982 102.11761148 C-293.33750982 102.11761148 -292.67750982 102.11761148 -291.99750982 102.11761148 C-291.50250982 100.63261148 -291.50250982 100.63261148 -290.99750982 99.11761148 C-290.33750982 99.11761148 -289.67750982 99.11761148 -288.99750982 99.11761148 C-288.99750982 98.45761148 -288.99750982 97.79761148 -288.99750982 97.11761148 C-288.33750982 97.11761148 -287.67750982 97.11761148 -286.99750982 97.11761148 C-286.50250982 95.63261148 -286.50250982 95.63261148 -285.99750982 94.11761148 C-285.33750982 94.11761148 -284.67750982 94.11761148 -283.99750982 94.11761148 C-283.99750982 93.45761148 -283.99750982 92.79761148 -283.99750982 92.11761148 C-283.33750982 92.11761148 -282.67750982 92.11761148 -281.99750982 92.11761148 C-281.50250982 90.63261148 -281.50250982 90.63261148 -280.99750982 89.11761148 C-280.33750982 89.11761148 -279.67750982 89.11761148 -278.99750982 89.11761148 C-278.99750982 88.45761148 -278.99750982 87.79761148 -278.99750982 87.11761148 C-278.33750982 87.11761148 -277.67750982 87.11761148 -276.99750982 87.11761148 C-276.50250982 85.63261148 -276.50250982 85.63261148 -275.99750982 84.11761148 C-275.33750982 84.11761148 -274.67750982 84.11761148 -273.99750982 84.11761148 C-273.99750982 83.45761148 -273.99750982 82.79761148 -273.99750982 82.11761148 C-273.33750982 82.11761148 -272.67750982 82.11761148 -271.99750982 82.11761148 C-271.50250982 80.63261148 -271.50250982 80.63261148 -270.99750982 79.11761148 C-270.33750982 79.11761148 -269.67750982 79.11761148 -268.99750982 79.11761148 C-268.99750982 78.45761148 -268.99750982 77.79761148 -268.99750982 77.11761148 C-268.33750982 77.11761148 -267.67750982 77.11761148 -266.99750982 77.11761148 C-266.99750982 76.45761148 -266.99750982 75.79761148 -266.99750982 75.11761148 C-266.00750982 75.11761148 -265.01750982 75.11761148 -263.99750982 75.11761148 C-263.99750982 74.45761148 -263.99750982 73.79761148 -263.99750982 73.11761148 C-262.53657232 71.60979898 -262.53657232 71.60979898 -260.62250982 69.99261148 C-259.99602545 69.45378336 -259.36954107 68.91495523 -258.72407232 68.35979898 C-256.99750982 67.11761148 -256.99750982 67.11761148 -254.99750982 67.11761148 C-254.99750982 66.45761148 -254.99750982 65.79761148 -254.99750982 65.11761148 C-252.73936135 63.31934703 -250.48473243 61.64293139 -248.12250982 59.99261148 C-247.47153326 59.52468179 -246.8205567 59.05675211 -246.14985357 58.57464273 C-241.26163154 55.11761148 -241.26163154 55.11761148 -238.99750982 55.11761148 C-238.99750982 54.45761148 -238.99750982 53.79761148 -238.99750982 53.11761148 C-236.61432403 51.18082809 -233.92312068 49.66300476 -231.31000982 48.05511148 C-230.58877935 47.5955607 -229.86754888 47.13600992 -229.12446295 46.66253336 C-225.45959064 44.38328401 -222.38898148 42.54203379 -217.99750982 42.11761148 C-217.99750982 41.45761148 -217.99750982 40.79761148 -217.99750982 40.11761148 C-212.37250982 37.11761148 -212.37250982 37.11761148 -208.99750982 37.11761148 C-208.99750982 36.45761148 -208.99750982 35.79761148 -208.99750982 35.11761148 C-202.37250982 32.11761148 -202.37250982 32.11761148 -198.99750982 32.11761148 C-198.99750982 31.45761148 -198.99750982 30.79761148 -198.99750982 30.11761148 C-192.49750982 27.11761148 -192.49750982 27.11761148 -187.99750982 27.11761148 C-187.99750982 26.45761148 -187.99750982 25.79761148 -187.99750982 25.11761148 C-186.88633795 24.73089273 -185.77516607 24.34417398 -184.63032232 23.94573648 C-183.12756166 23.42014205 -181.62496852 22.89406849 -180.12250982 22.36761148 C-179.34617193 22.09610269 -178.56983404 21.8245939 -177.76997076 21.54485758 C-172.79365374 19.79101179 -167.90302692 17.91753452 -163.07563482 15.78167398 C-160.63266588 15.00102601 -158.54656419 15.00174537 -155.99750982 15.11761148 C-155.99750982 14.45761148 -155.99750982 13.79761148 -155.99750982 13.11761148 C-154.06584966 12.70188883 -154.06584966 12.70188883 -152.09516607 12.27776773 C-150.41673828 11.91207676 -148.73835514 11.54618076 -147.06000982 11.18011148 C-146.2098731 10.99770914 -145.35973638 10.81530679 -144.48383795 10.62737711 C-143.67495123 10.45013101 -142.86606451 10.27288492 -142.03266607 10.09026773 C-140.90936895 9.84675577 -140.90936895 9.84675577 -139.76337896 9.59832437 C-137.98576679 9.27138353 -137.98576679 9.27138353 -136.99750982 8.11761148 C-134.51952928 7.54209976 -132.05840043 7.02510854 -129.56000982 6.55511148 C-128.83877935 6.41871256 -128.11754888 6.28231363 -127.37446295 6.1417814 C-121.87782699 5.15752007 -116.58427746 4.75500877 -110.99750982 5.11761148 C-110.99750982 4.45761148 -110.99750982 3.79761148 -110.99750982 3.11761148 C-109.40809576 3.02673258 -109.40809576 3.02673258 -107.78657232 2.93401773 C-106.39853761 2.84961022 -105.0105175 2.76496232 -103.62250982 2.68011148 C-102.57450201 2.62113687 -102.57450201 2.62113687 -101.50532232 2.56097086 C-97.6239049 2.37481014 -97.6239049 2.37481014 -93.99750982 1.11761148 C-89.51458507 0.73574276 -85.00759517 0.68382692 -80.51073919 0.56220682 C-79.76532618 0.54121613 -79.01991317 0.52022543 -78.25191188 0.49859866 C-52.17746777 -0.20812425 -26.08194711 -0.01758061 0 0 Z " fill="#5D43E7" transform="translate(371.99750982085243,0.8823885177262127)"/>
</svg>
